M48
; DRILL file {KiCad 8.0.6} date 2025-01-21T23:03:26+0200
; FORMAT={-:-/ absolute / metric / decimal}
; #@! TF.CreationDate,2025-01-21T23:03:26+02:00
; #@! TF.GenerationSoftware,Kicad,Pcbnew,8.0.6
; #@! TF.FileFunction,Plated,1,2,PTH
FMAT,2
METRIC
; #@! TA.AperFunction,Plated,PTH,ViaDrill
T1C0.300
; #@! TA.AperFunction,Plated,PTH,ComponentDrill
T2C0.700
; #@! TA.AperFunction,Plated,PTH,ComponentDrill
T3C0.800
; #@! TA.AperFunction,Plated,PTH,ComponentDrill
T4C0.900
; #@! TA.AperFunction,Plated,PTH,ComponentDrill
T5C1.000
; #@! TA.AperFunction,Plated,PTH,ComponentDrill
T6C1.300
%
G90
G05
T1
X62.0Y-53.0
X62.5Y-59.0
X64.0Y-45.0
X65.0Y-64.0
X65.5Y-61.5
X66.375Y-60.5
X67.575Y-51.004
X67.575Y-60.5
X68.325Y-60.101
X68.5Y-146.5
X69.5Y-156.5
X71.5Y-44.5
X74.5Y-103.5
X76.5Y-112.574
X77.0Y-133.0
X78.5Y-94.5
X78.5Y-124.962
X79.0Y-107.0
X79.3Y-123.242
X80.0Y-108.462
X80.5Y-112.0
X82.0Y-129.0
X85.65Y-121.5
X86.5Y-44.0
X88.0Y-39.5
X89.5Y-47.5
X92.0Y-109.5
X93.0Y-111.0
X93.0Y-120.0
X94.5Y-95.4
X97.5Y-139.0
X98.0Y-40.5
X102.0Y-56.5
X102.0Y-57.5
X102.0Y-59.0
X102.0Y-60.0
X102.0Y-61.5
X103.0Y-73.5
X104.0Y-49.0
X104.0Y-55.0
X110.75Y-69.25
X111.0Y-67.5
X111.5Y-60.5
X111.5Y-63.5
X111.5Y-66.0
X116.0Y-73.0
X117.5Y-65.0
X118.5Y-68.0
X124.0Y-93.5
X124.0Y-98.5
X125.0Y-134.0
X128.4Y-51.0
X128.5Y-47.0
T2
X67.5Y-64.0
T3
X71.83Y-62.32
X72.0Y-52.5
X73.83Y-62.32
X74.0Y-52.5
X80.5Y-48.0
X80.5Y-58.0
X82.5Y-48.0
X82.5Y-58.0
X106.318Y-41.5
X108.818Y-41.5
X114.0Y-55.5
X116.0Y-55.5
T4
X60.5Y-100.0
X60.5Y-105.0
X63.0Y-102.5
T5
X57.52Y-68.0
X57.52Y-90.0
X60.06Y-68.0
X60.06Y-90.0
X62.6Y-68.0
X62.6Y-90.0
X65.14Y-68.0
X65.14Y-90.0
X67.68Y-68.0
X67.68Y-90.0
X70.22Y-68.0
X70.22Y-90.0
X72.76Y-68.0
X72.76Y-90.0
X75.3Y-68.0
X75.3Y-90.0
X77.84Y-68.0
X77.84Y-90.0
X80.38Y-68.0
X80.38Y-90.0
X82.92Y-68.0
X82.92Y-90.0
X85.46Y-68.0
X85.46Y-90.0
X88.0Y-68.0
X88.0Y-90.0
X90.54Y-68.0
X90.54Y-90.0
X93.08Y-68.0
X93.08Y-90.0
X104.5Y-113.5
X109.5Y-113.5
X114.132Y-104.5
X119.132Y-104.5
T6
X50.5Y-113.42
X50.5Y-118.5
X50.5Y-123.58
X50.5Y-128.66
X50.5Y-137.42
X50.5Y-142.5
X50.5Y-147.58
X50.5Y-152.66
X50.695Y-94.915
X50.695Y-99.995
X50.695Y-105.075
M30
