%TF.GenerationSoftware,KiCad,Pcbnew,8.0.6*%
%TF.CreationDate,2025-01-22T01:24:06+02:00*%
%TF.ProjectId,Speaker,53706561-6b65-4722-9e6b-696361645f70,rev?*%
%TF.SameCoordinates,Original*%
%TF.FileFunction,Soldermask,Bot*%
%TF.FilePolarity,Negative*%
%FSLAX46Y46*%
G04 Gerber Fmt 4.6, Leading zero omitted, Abs format (unit mm)*
G04 Created by KiCad (PCBNEW 8.0.6) date 2025-01-22 01:24:06*
%MOMM*%
%LPD*%
G01*
G04 APERTURE LIST*
G04 Aperture macros list*
%AMRoundRect*
0 Rectangle with rounded corners*
0 $1 Rounding radius*
0 $2 $3 $4 $5 $6 $7 $8 $9 X,Y pos of 4 corners*
0 Add a 4 corners polygon primitive as box body*
4,1,4,$2,$3,$4,$5,$6,$7,$8,$9,$2,$3,0*
0 Add four circle primitives for the rounded corners*
1,1,$1+$1,$2,$3*
1,1,$1+$1,$4,$5*
1,1,$1+$1,$6,$7*
1,1,$1+$1,$8,$9*
0 Add four rect primitives between the rounded corners*
20,1,$1+$1,$2,$3,$4,$5,0*
20,1,$1+$1,$4,$5,$6,$7,0*
20,1,$1+$1,$6,$7,$8,$9,0*
20,1,$1+$1,$8,$9,$2,$3,0*%
G04 Aperture macros list end*
%ADD10C,1.400000*%
%ADD11O,1.600000X1.600000*%
%ADD12R,1.600000X1.600000*%
%ADD13C,1.620000*%
%ADD14RoundRect,0.250000X-0.350000X-0.450000X0.350000X-0.450000X0.350000X0.450000X-0.350000X0.450000X0*%
%ADD15RoundRect,0.250000X0.350000X0.450000X-0.350000X0.450000X-0.350000X-0.450000X0.350000X-0.450000X0*%
%ADD16R,2.200000X1.600000*%
%ADD17R,1.600000X2.200000*%
%ADD18R,2.600000X2.600000*%
%ADD19C,2.600000*%
%ADD20C,1.600000*%
%ADD21R,2.000000X2.000000*%
%ADD22C,2.000000*%
%ADD23RoundRect,0.250000X-0.337500X-0.475000X0.337500X-0.475000X0.337500X0.475000X-0.337500X0.475000X0*%
G04 APERTURE END LIST*
D10*
%TO.C,TP1*%
X67500000Y-64000000D03*
%TD*%
D11*
%TO.C,\u00B5C-ESP32*%
X57520000Y-90000000D03*
X60060000Y-90000000D03*
X62600000Y-90000000D03*
X65140000Y-90000000D03*
X67680000Y-90000000D03*
X70220000Y-90000000D03*
X72760000Y-90000000D03*
X75300000Y-90000000D03*
X77840000Y-90000000D03*
X80380000Y-90000000D03*
X82920000Y-90000000D03*
X85460000Y-90000000D03*
X88000000Y-90000000D03*
X90540000Y-90000000D03*
X93080000Y-90000000D03*
D12*
X93080000Y-68000000D03*
D11*
X90540000Y-68000000D03*
X88000000Y-68000000D03*
X85460000Y-68000000D03*
X82920000Y-68000000D03*
X80380000Y-68000000D03*
X77840000Y-68000000D03*
X75300000Y-68000000D03*
X72760000Y-68000000D03*
X70220000Y-68000000D03*
X67680000Y-68000000D03*
X65140000Y-68000000D03*
X62600000Y-68000000D03*
X60060000Y-68000000D03*
X57520000Y-68000000D03*
%TD*%
D13*
%TO.C,RV1*%
X60500000Y-100000000D03*
X63000000Y-102500000D03*
X60500000Y-105000000D03*
%TD*%
D14*
%TO.C,R23*%
X67500000Y-117500000D03*
X69500000Y-117500000D03*
%TD*%
%TO.C,R22*%
X91962500Y-117500000D03*
X93962500Y-117500000D03*
%TD*%
D15*
%TO.C,R3*%
X68000000Y-86000000D03*
X66000000Y-86000000D03*
%TD*%
D16*
%TO.C,L4*%
X79000000Y-128200000D03*
X79000000Y-121800000D03*
%TD*%
%TO.C,L3*%
X89500000Y-121800000D03*
X89500000Y-128200000D03*
%TD*%
D17*
%TO.C,L1*%
X103300000Y-124500000D03*
X109700000Y-124500000D03*
%TD*%
D18*
%TO.C,JP1*%
X45195000Y-94915000D03*
D19*
X45195000Y-99995000D03*
X45195000Y-105075000D03*
%TD*%
D18*
%TO.C,J5*%
X45500000Y-113000000D03*
D19*
X45500000Y-118080000D03*
X45500000Y-123160000D03*
X45500000Y-128240000D03*
%TD*%
D18*
%TO.C,J4*%
X55420000Y-125500000D03*
D19*
X60500000Y-125500000D03*
X65580000Y-125500000D03*
X70660000Y-125500000D03*
%TD*%
D20*
%TO.C,J2*%
X55700000Y-58600000D03*
X49700000Y-58600000D03*
%TD*%
D21*
%TO.C,C60*%
X114132323Y-104500000D03*
D22*
X119132323Y-104500000D03*
%TD*%
D23*
%TO.C,C55*%
X71462500Y-117500000D03*
X73537500Y-117500000D03*
%TD*%
%TO.C,C54*%
X87925000Y-117500000D03*
X90000000Y-117500000D03*
%TD*%
%TO.C,C53*%
X67500000Y-111500000D03*
X69575000Y-111500000D03*
%TD*%
%TO.C,C52*%
X91925000Y-114500000D03*
X94000000Y-114500000D03*
%TD*%
%TO.C,C51*%
X67462500Y-115000000D03*
X69537500Y-115000000D03*
%TD*%
%TO.C,C50*%
X91925000Y-112000000D03*
X94000000Y-112000000D03*
%TD*%
D21*
%TO.C,C41*%
X104500000Y-113500000D03*
D22*
X109500000Y-113500000D03*
%TD*%
D12*
%TO.C,C33*%
X114000000Y-55500000D03*
D20*
X116000000Y-55500000D03*
%TD*%
D12*
%TO.C,C27*%
X106317621Y-41500000D03*
D20*
X108817621Y-41500000D03*
%TD*%
D12*
%TO.C,C13*%
X80500000Y-58000000D03*
D20*
X82500000Y-58000000D03*
%TD*%
D12*
%TO.C,C6*%
X80500000Y-48000000D03*
D20*
X82500000Y-48000000D03*
%TD*%
D12*
%TO.C,C3*%
X72000000Y-52500000D03*
D20*
X74000000Y-52500000D03*
%TD*%
%TO.C,C1*%
X73829775Y-62320000D03*
D12*
X71829775Y-62320000D03*
%TD*%
M02*
