%TF.GenerationSoftware,KiCad,Pcbnew,8.0.6*%
%TF.CreationDate,2025-01-22T01:24:06+02:00*%
%TF.ProjectId,Speaker,53706561-6b65-4722-9e6b-696361645f70,rev?*%
%TF.SameCoordinates,Original*%
%TF.FileFunction,Paste,Top*%
%TF.FilePolarity,Positive*%
%FSLAX46Y46*%
G04 Gerber Fmt 4.6, Leading zero omitted, Abs format (unit mm)*
G04 Created by KiCad (PCBNEW 8.0.6) date 2025-01-22 01:24:06*
%MOMM*%
%LPD*%
G01*
G04 APERTURE LIST*
G04 Aperture macros list*
%AMRoundRect*
0 Rectangle with rounded corners*
0 $1 Rounding radius*
0 $2 $3 $4 $5 $6 $7 $8 $9 X,Y pos of 4 corners*
0 Add a 4 corners polygon primitive as box body*
4,1,4,$2,$3,$4,$5,$6,$7,$8,$9,$2,$3,0*
0 Add four circle primitives for the rounded corners*
1,1,$1+$1,$2,$3*
1,1,$1+$1,$4,$5*
1,1,$1+$1,$6,$7*
1,1,$1+$1,$8,$9*
0 Add four rect primitives between the rounded corners*
20,1,$1+$1,$2,$3,$4,$5,0*
20,1,$1+$1,$4,$5,$6,$7,0*
20,1,$1+$1,$6,$7,$8,$9,0*
20,1,$1+$1,$8,$9,$2,$3,0*%
G04 Aperture macros list end*
%ADD10RoundRect,0.250000X-0.450000X0.350000X-0.450000X-0.350000X0.450000X-0.350000X0.450000X0.350000X0*%
%ADD11RoundRect,0.250000X0.350000X0.450000X-0.350000X0.450000X-0.350000X-0.450000X0.350000X-0.450000X0*%
%ADD12RoundRect,0.250000X-0.350000X-0.450000X0.350000X-0.450000X0.350000X0.450000X-0.350000X0.450000X0*%
%ADD13RoundRect,0.250000X0.450000X-0.350000X0.450000X0.350000X-0.450000X0.350000X-0.450000X-0.350000X0*%
%ADD14R,1.600000X2.200000*%
%ADD15R,1.800000X2.800000*%
%ADD16R,1.800000X2.500000*%
%ADD17R,4.360000X4.110000*%
%ADD18R,0.450000X1.475000*%
%ADD19R,1.925000X0.650000*%
%ADD20RoundRect,0.250000X-0.337500X-0.475000X0.337500X-0.475000X0.337500X0.475000X-0.337500X0.475000X0*%
%ADD21RoundRect,0.250000X0.337500X0.475000X-0.337500X0.475000X-0.337500X-0.475000X0.337500X-0.475000X0*%
%ADD22RoundRect,0.250000X0.475000X-0.337500X0.475000X0.337500X-0.475000X0.337500X-0.475000X-0.337500X0*%
%ADD23RoundRect,0.250000X-0.475000X0.337500X-0.475000X-0.337500X0.475000X-0.337500X0.475000X0.337500X0*%
%ADD24RoundRect,0.250000X-0.412500X-0.650000X0.412500X-0.650000X0.412500X0.650000X-0.412500X0.650000X0*%
%ADD25RoundRect,0.250000X-0.650000X0.412500X-0.650000X-0.412500X0.650000X-0.412500X0.650000X0.412500X0*%
G04 APERTURE END LIST*
D10*
%TO.C,R21*%
X114500000Y-118500000D03*
X114500000Y-120500000D03*
%TD*%
%TO.C,R20*%
X125400000Y-123462500D03*
X125400000Y-125462500D03*
%TD*%
D11*
%TO.C,R19*%
X91000000Y-116000000D03*
X89000000Y-116000000D03*
%TD*%
%TO.C,R18*%
X124500000Y-53000000D03*
X122500000Y-53000000D03*
%TD*%
D12*
%TO.C,R17*%
X122500000Y-44500000D03*
X124500000Y-44500000D03*
%TD*%
%TO.C,R16*%
X117000000Y-50000000D03*
X119000000Y-50000000D03*
%TD*%
%TO.C,R15*%
X117000000Y-47050000D03*
X119000000Y-47050000D03*
%TD*%
D13*
%TO.C,R14*%
X105000000Y-69500000D03*
X105000000Y-71500000D03*
%TD*%
D10*
%TO.C,R13*%
X107500000Y-69500000D03*
X107500000Y-71500000D03*
%TD*%
D13*
%TO.C,R12*%
X119000000Y-71500000D03*
X119000000Y-69500000D03*
%TD*%
%TO.C,R11*%
X119050000Y-63500000D03*
X119050000Y-61500000D03*
%TD*%
D12*
%TO.C,R10*%
X81500000Y-65500000D03*
X83500000Y-65500000D03*
%TD*%
D11*
%TO.C,R9*%
X81500000Y-63000000D03*
X83500000Y-63000000D03*
%TD*%
%TO.C,R5*%
X85000000Y-98000000D03*
X87000000Y-98000000D03*
%TD*%
%TO.C,R4*%
X87000000Y-94500000D03*
X85000000Y-94500000D03*
%TD*%
D10*
%TO.C,R2*%
X60000000Y-47000000D03*
X60000000Y-49000000D03*
%TD*%
%TO.C,R1*%
X56000000Y-49000000D03*
X56000000Y-47000000D03*
%TD*%
D14*
%TO.C,L2*%
X121100000Y-126500000D03*
X114700000Y-126500000D03*
%TD*%
D15*
%TO.C,J2*%
X48700000Y-55000000D03*
X56500000Y-55000000D03*
X52000000Y-55000000D03*
D16*
X54200000Y-62300000D03*
X48700000Y-62300000D03*
%TD*%
D17*
%TO.C,IC3*%
X80775000Y-117712000D03*
D18*
X85650000Y-121500000D03*
X85000000Y-121500000D03*
X84350000Y-121500000D03*
X83700000Y-121500000D03*
X83050000Y-121500000D03*
X82400000Y-121500000D03*
X81750000Y-121500000D03*
X81100000Y-121500000D03*
X80450000Y-121500000D03*
X79800000Y-121500000D03*
X79150000Y-121500000D03*
X78500000Y-121500000D03*
X77850000Y-121500000D03*
X77200000Y-121500000D03*
X76550000Y-121500000D03*
X75900000Y-121500000D03*
X75900000Y-113924000D03*
X76550000Y-113924000D03*
X77200000Y-113924000D03*
X77850000Y-113924000D03*
X78500000Y-113924000D03*
X79150000Y-113924000D03*
X79800000Y-113924000D03*
X80450000Y-113924000D03*
X81100000Y-113924000D03*
X81750000Y-113924000D03*
X82400000Y-113924000D03*
X83050000Y-113924000D03*
X83700000Y-113924000D03*
X84350000Y-113924000D03*
X85000000Y-113924000D03*
X85650000Y-113924000D03*
%TD*%
D19*
%TO.C,IC2*%
X102000000Y-44960000D03*
X102000000Y-46230000D03*
X102000000Y-47500000D03*
X102000000Y-48770000D03*
X102000000Y-50040000D03*
X102000000Y-51310000D03*
X102000000Y-52580000D03*
X102000000Y-53850000D03*
X102000000Y-55120000D03*
X102000000Y-56390000D03*
X102000000Y-57660000D03*
X102000000Y-58930000D03*
X102000000Y-60200000D03*
X102000000Y-61470000D03*
X92576000Y-61470000D03*
X92576000Y-60200000D03*
X92576000Y-58930000D03*
X92576000Y-57660000D03*
X92576000Y-56390000D03*
X92576000Y-55120000D03*
X92576000Y-53850000D03*
X92576000Y-52580000D03*
X92576000Y-51310000D03*
X92576000Y-50040000D03*
X92576000Y-48770000D03*
X92576000Y-47500000D03*
X92576000Y-46230000D03*
X92576000Y-44960000D03*
%TD*%
D18*
%TO.C,IC1*%
X68925000Y-53062000D03*
X68275000Y-53062000D03*
X67625000Y-53062000D03*
X66975000Y-53062000D03*
X66325000Y-53062000D03*
X65675000Y-53062000D03*
X65025000Y-53062000D03*
X64375000Y-53062000D03*
X63725000Y-53062000D03*
X63075000Y-53062000D03*
X63075000Y-58938000D03*
X63725000Y-58938000D03*
X64375000Y-58938000D03*
X65025000Y-58938000D03*
X65675000Y-58938000D03*
X66325000Y-58938000D03*
X66975000Y-58938000D03*
X67625000Y-58938000D03*
X68275000Y-58938000D03*
X68925000Y-58938000D03*
%TD*%
D20*
%TO.C,C59*%
X119962500Y-98500000D03*
X122037500Y-98500000D03*
%TD*%
D21*
%TO.C,C58*%
X122037500Y-93500000D03*
X119962500Y-93500000D03*
%TD*%
D22*
%TO.C,C57*%
X78500000Y-127037500D03*
X78500000Y-124962500D03*
%TD*%
D23*
%TO.C,C56*%
X82000000Y-124962500D03*
X82000000Y-127037500D03*
%TD*%
%TO.C,C49*%
X125400000Y-127425000D03*
X125400000Y-129500000D03*
%TD*%
%TO.C,C48*%
X114500000Y-114462500D03*
X114500000Y-116537500D03*
%TD*%
%TO.C,C47*%
X132400000Y-123425000D03*
X132400000Y-125500000D03*
%TD*%
%TO.C,C46*%
X118000000Y-118462500D03*
X118000000Y-120537500D03*
%TD*%
%TO.C,C45*%
X128900000Y-123425000D03*
X128900000Y-125500000D03*
%TD*%
%TO.C,C44*%
X122500000Y-118462500D03*
X122500000Y-120537500D03*
%TD*%
D20*
%TO.C,C43*%
X91037500Y-127510000D03*
X88962500Y-127510000D03*
%TD*%
%TO.C,C42*%
X88962500Y-124500000D03*
X91037500Y-124500000D03*
%TD*%
D23*
%TO.C,C40*%
X100500000Y-115962500D03*
X100500000Y-118037500D03*
%TD*%
D22*
%TO.C,C39*%
X98000000Y-118037500D03*
X98000000Y-115962500D03*
%TD*%
D21*
%TO.C,C38*%
X95537500Y-116000000D03*
X93462500Y-116000000D03*
%TD*%
%TO.C,C37*%
X91037500Y-119490000D03*
X88962500Y-119490000D03*
%TD*%
D20*
%TO.C,C36*%
X76425000Y-104500000D03*
X78500000Y-104500000D03*
%TD*%
D23*
%TO.C,C35*%
X84000000Y-108462500D03*
X84000000Y-110537500D03*
%TD*%
%TO.C,C34*%
X80000000Y-108462500D03*
X80000000Y-110537500D03*
%TD*%
D20*
%TO.C,C32*%
X127000000Y-50500000D03*
X124925000Y-50500000D03*
%TD*%
D21*
%TO.C,C31*%
X127000000Y-46990000D03*
X124925000Y-46990000D03*
%TD*%
D24*
%TO.C,C30*%
X108437500Y-50350000D03*
X111562500Y-50350000D03*
%TD*%
%TO.C,C29*%
X108437500Y-47000000D03*
X111562500Y-47000000D03*
%TD*%
D21*
%TO.C,C28*%
X102000000Y-41500000D03*
X99925000Y-41500000D03*
%TD*%
%TO.C,C26*%
X93537500Y-64000000D03*
X91462500Y-64000000D03*
%TD*%
D20*
%TO.C,C25*%
X113925000Y-73000000D03*
X116000000Y-73000000D03*
%TD*%
%TO.C,C24*%
X113925000Y-69990000D03*
X116000000Y-69990000D03*
%TD*%
%TO.C,C23*%
X113925000Y-66980000D03*
X116000000Y-66980000D03*
%TD*%
%TO.C,C22*%
X113925000Y-64010000D03*
X116000000Y-64010000D03*
%TD*%
%TO.C,C21*%
X113925000Y-61000000D03*
X116000000Y-61000000D03*
%TD*%
%TO.C,C20*%
X86462500Y-62500000D03*
X88537500Y-62500000D03*
%TD*%
%TO.C,C19*%
X86462500Y-59500000D03*
X88537500Y-59500000D03*
%TD*%
%TO.C,C18*%
X86462500Y-57000000D03*
X88537500Y-57000000D03*
%TD*%
%TO.C,C17*%
X86462500Y-53500000D03*
X88537500Y-53500000D03*
%TD*%
D23*
%TO.C,C16*%
X49000000Y-46962500D03*
X49000000Y-49037500D03*
%TD*%
%TO.C,C15*%
X52500000Y-46962500D03*
X52500000Y-49037500D03*
%TD*%
D21*
%TO.C,C14*%
X82537500Y-53000000D03*
X80462500Y-53000000D03*
%TD*%
D24*
%TO.C,C12*%
X66437500Y-48500000D03*
X69562500Y-48500000D03*
%TD*%
D25*
%TO.C,C11*%
X64000000Y-50062500D03*
X64000000Y-46937500D03*
%TD*%
D21*
%TO.C,C10*%
X70037500Y-44500000D03*
X67962500Y-44500000D03*
%TD*%
%TO.C,C9*%
X87037500Y-42000000D03*
X84962500Y-42000000D03*
%TD*%
%TO.C,C8*%
X88537500Y-46000000D03*
X86462500Y-46000000D03*
%TD*%
%TO.C,C7*%
X88537500Y-50000000D03*
X86462500Y-50000000D03*
%TD*%
D22*
%TO.C,C5*%
X76500000Y-49075000D03*
X76500000Y-47000000D03*
%TD*%
D21*
%TO.C,C4*%
X72462500Y-47000000D03*
X74537500Y-47000000D03*
%TD*%
%TO.C,C2*%
X74037500Y-58000000D03*
X71962500Y-58000000D03*
%TD*%
M02*
