%TF.GenerationSoftware,KiCad,Pcbnew,8.0.6*%
%TF.CreationDate,2025-01-22T01:24:06+02:00*%
%TF.ProjectId,Speaker,53706561-6b65-4722-9e6b-696361645f70,rev?*%
%TF.SameCoordinates,Original*%
%TF.FileFunction,Legend,Bot*%
%TF.FilePolarity,Positive*%
%FSLAX46Y46*%
G04 Gerber Fmt 4.6, Leading zero omitted, Abs format (unit mm)*
G04 Created by KiCad (PCBNEW 8.0.6) date 2025-01-22 01:24:06*
%MOMM*%
%LPD*%
G01*
G04 APERTURE LIST*
%ADD10C,0.150000*%
%ADD11C,0.254000*%
%ADD12C,0.120000*%
%ADD13C,0.100000*%
G04 APERTURE END LIST*
D10*
X69142857Y-119604819D02*
X69476190Y-119128628D01*
X69714285Y-119604819D02*
X69714285Y-118604819D01*
X69714285Y-118604819D02*
X69333333Y-118604819D01*
X69333333Y-118604819D02*
X69238095Y-118652438D01*
X69238095Y-118652438D02*
X69190476Y-118700057D01*
X69190476Y-118700057D02*
X69142857Y-118795295D01*
X69142857Y-118795295D02*
X69142857Y-118938152D01*
X69142857Y-118938152D02*
X69190476Y-119033390D01*
X69190476Y-119033390D02*
X69238095Y-119081009D01*
X69238095Y-119081009D02*
X69333333Y-119128628D01*
X69333333Y-119128628D02*
X69714285Y-119128628D01*
X68761904Y-118700057D02*
X68714285Y-118652438D01*
X68714285Y-118652438D02*
X68619047Y-118604819D01*
X68619047Y-118604819D02*
X68380952Y-118604819D01*
X68380952Y-118604819D02*
X68285714Y-118652438D01*
X68285714Y-118652438D02*
X68238095Y-118700057D01*
X68238095Y-118700057D02*
X68190476Y-118795295D01*
X68190476Y-118795295D02*
X68190476Y-118890533D01*
X68190476Y-118890533D02*
X68238095Y-119033390D01*
X68238095Y-119033390D02*
X68809523Y-119604819D01*
X68809523Y-119604819D02*
X68190476Y-119604819D01*
X67857142Y-118604819D02*
X67238095Y-118604819D01*
X67238095Y-118604819D02*
X67571428Y-118985771D01*
X67571428Y-118985771D02*
X67428571Y-118985771D01*
X67428571Y-118985771D02*
X67333333Y-119033390D01*
X67333333Y-119033390D02*
X67285714Y-119081009D01*
X67285714Y-119081009D02*
X67238095Y-119176247D01*
X67238095Y-119176247D02*
X67238095Y-119414342D01*
X67238095Y-119414342D02*
X67285714Y-119509580D01*
X67285714Y-119509580D02*
X67333333Y-119557200D01*
X67333333Y-119557200D02*
X67428571Y-119604819D01*
X67428571Y-119604819D02*
X67714285Y-119604819D01*
X67714285Y-119604819D02*
X67809523Y-119557200D01*
X67809523Y-119557200D02*
X67857142Y-119509580D01*
X93605357Y-119604819D02*
X93938690Y-119128628D01*
X94176785Y-119604819D02*
X94176785Y-118604819D01*
X94176785Y-118604819D02*
X93795833Y-118604819D01*
X93795833Y-118604819D02*
X93700595Y-118652438D01*
X93700595Y-118652438D02*
X93652976Y-118700057D01*
X93652976Y-118700057D02*
X93605357Y-118795295D01*
X93605357Y-118795295D02*
X93605357Y-118938152D01*
X93605357Y-118938152D02*
X93652976Y-119033390D01*
X93652976Y-119033390D02*
X93700595Y-119081009D01*
X93700595Y-119081009D02*
X93795833Y-119128628D01*
X93795833Y-119128628D02*
X94176785Y-119128628D01*
X93224404Y-118700057D02*
X93176785Y-118652438D01*
X93176785Y-118652438D02*
X93081547Y-118604819D01*
X93081547Y-118604819D02*
X92843452Y-118604819D01*
X92843452Y-118604819D02*
X92748214Y-118652438D01*
X92748214Y-118652438D02*
X92700595Y-118700057D01*
X92700595Y-118700057D02*
X92652976Y-118795295D01*
X92652976Y-118795295D02*
X92652976Y-118890533D01*
X92652976Y-118890533D02*
X92700595Y-119033390D01*
X92700595Y-119033390D02*
X93272023Y-119604819D01*
X93272023Y-119604819D02*
X92652976Y-119604819D01*
X92272023Y-118700057D02*
X92224404Y-118652438D01*
X92224404Y-118652438D02*
X92129166Y-118604819D01*
X92129166Y-118604819D02*
X91891071Y-118604819D01*
X91891071Y-118604819D02*
X91795833Y-118652438D01*
X91795833Y-118652438D02*
X91748214Y-118700057D01*
X91748214Y-118700057D02*
X91700595Y-118795295D01*
X91700595Y-118795295D02*
X91700595Y-118890533D01*
X91700595Y-118890533D02*
X91748214Y-119033390D01*
X91748214Y-119033390D02*
X92319642Y-119604819D01*
X92319642Y-119604819D02*
X91700595Y-119604819D01*
X67166666Y-84804819D02*
X67499999Y-84328628D01*
X67738094Y-84804819D02*
X67738094Y-83804819D01*
X67738094Y-83804819D02*
X67357142Y-83804819D01*
X67357142Y-83804819D02*
X67261904Y-83852438D01*
X67261904Y-83852438D02*
X67214285Y-83900057D01*
X67214285Y-83900057D02*
X67166666Y-83995295D01*
X67166666Y-83995295D02*
X67166666Y-84138152D01*
X67166666Y-84138152D02*
X67214285Y-84233390D01*
X67214285Y-84233390D02*
X67261904Y-84281009D01*
X67261904Y-84281009D02*
X67357142Y-84328628D01*
X67357142Y-84328628D02*
X67738094Y-84328628D01*
X66833332Y-83804819D02*
X66214285Y-83804819D01*
X66214285Y-83804819D02*
X66547618Y-84185771D01*
X66547618Y-84185771D02*
X66404761Y-84185771D01*
X66404761Y-84185771D02*
X66309523Y-84233390D01*
X66309523Y-84233390D02*
X66261904Y-84281009D01*
X66261904Y-84281009D02*
X66214285Y-84376247D01*
X66214285Y-84376247D02*
X66214285Y-84614342D01*
X66214285Y-84614342D02*
X66261904Y-84709580D01*
X66261904Y-84709580D02*
X66309523Y-84757200D01*
X66309523Y-84757200D02*
X66404761Y-84804819D01*
X66404761Y-84804819D02*
X66690475Y-84804819D01*
X66690475Y-84804819D02*
X66785713Y-84757200D01*
X66785713Y-84757200D02*
X66833332Y-84709580D01*
D11*
X79211666Y-125574318D02*
X79816428Y-125574318D01*
X79816428Y-125574318D02*
X79816428Y-124304318D01*
X78244047Y-124727651D02*
X78244047Y-125574318D01*
X78546428Y-124243842D02*
X78848809Y-125150984D01*
X78848809Y-125150984D02*
X78062618Y-125150984D01*
X89711666Y-125574318D02*
X90316428Y-125574318D01*
X90316428Y-125574318D02*
X90316428Y-124304318D01*
X89409285Y-124304318D02*
X88623094Y-124304318D01*
X88623094Y-124304318D02*
X89046428Y-124788127D01*
X89046428Y-124788127D02*
X88864999Y-124788127D01*
X88864999Y-124788127D02*
X88744047Y-124848603D01*
X88744047Y-124848603D02*
X88683571Y-124909080D01*
X88683571Y-124909080D02*
X88623094Y-125030032D01*
X88623094Y-125030032D02*
X88623094Y-125332413D01*
X88623094Y-125332413D02*
X88683571Y-125453365D01*
X88683571Y-125453365D02*
X88744047Y-125513842D01*
X88744047Y-125513842D02*
X88864999Y-125574318D01*
X88864999Y-125574318D02*
X89227856Y-125574318D01*
X89227856Y-125574318D02*
X89348809Y-125513842D01*
X89348809Y-125513842D02*
X89409285Y-125453365D01*
X107074318Y-124288333D02*
X107074318Y-123683571D01*
X107074318Y-123683571D02*
X105804318Y-123683571D01*
X107074318Y-125376905D02*
X107074318Y-124651190D01*
X107074318Y-125014047D02*
X105804318Y-125014047D01*
X105804318Y-125014047D02*
X105985746Y-124893095D01*
X105985746Y-124893095D02*
X106106699Y-124772143D01*
X106106699Y-124772143D02*
X106167175Y-124651190D01*
D10*
X73142857Y-119539580D02*
X73190476Y-119587200D01*
X73190476Y-119587200D02*
X73333333Y-119634819D01*
X73333333Y-119634819D02*
X73428571Y-119634819D01*
X73428571Y-119634819D02*
X73571428Y-119587200D01*
X73571428Y-119587200D02*
X73666666Y-119491961D01*
X73666666Y-119491961D02*
X73714285Y-119396723D01*
X73714285Y-119396723D02*
X73761904Y-119206247D01*
X73761904Y-119206247D02*
X73761904Y-119063390D01*
X73761904Y-119063390D02*
X73714285Y-118872914D01*
X73714285Y-118872914D02*
X73666666Y-118777676D01*
X73666666Y-118777676D02*
X73571428Y-118682438D01*
X73571428Y-118682438D02*
X73428571Y-118634819D01*
X73428571Y-118634819D02*
X73333333Y-118634819D01*
X73333333Y-118634819D02*
X73190476Y-118682438D01*
X73190476Y-118682438D02*
X73142857Y-118730057D01*
X72238095Y-118634819D02*
X72714285Y-118634819D01*
X72714285Y-118634819D02*
X72761904Y-119111009D01*
X72761904Y-119111009D02*
X72714285Y-119063390D01*
X72714285Y-119063390D02*
X72619047Y-119015771D01*
X72619047Y-119015771D02*
X72380952Y-119015771D01*
X72380952Y-119015771D02*
X72285714Y-119063390D01*
X72285714Y-119063390D02*
X72238095Y-119111009D01*
X72238095Y-119111009D02*
X72190476Y-119206247D01*
X72190476Y-119206247D02*
X72190476Y-119444342D01*
X72190476Y-119444342D02*
X72238095Y-119539580D01*
X72238095Y-119539580D02*
X72285714Y-119587200D01*
X72285714Y-119587200D02*
X72380952Y-119634819D01*
X72380952Y-119634819D02*
X72619047Y-119634819D01*
X72619047Y-119634819D02*
X72714285Y-119587200D01*
X72714285Y-119587200D02*
X72761904Y-119539580D01*
X71285714Y-118634819D02*
X71761904Y-118634819D01*
X71761904Y-118634819D02*
X71809523Y-119111009D01*
X71809523Y-119111009D02*
X71761904Y-119063390D01*
X71761904Y-119063390D02*
X71666666Y-119015771D01*
X71666666Y-119015771D02*
X71428571Y-119015771D01*
X71428571Y-119015771D02*
X71333333Y-119063390D01*
X71333333Y-119063390D02*
X71285714Y-119111009D01*
X71285714Y-119111009D02*
X71238095Y-119206247D01*
X71238095Y-119206247D02*
X71238095Y-119444342D01*
X71238095Y-119444342D02*
X71285714Y-119539580D01*
X71285714Y-119539580D02*
X71333333Y-119587200D01*
X71333333Y-119587200D02*
X71428571Y-119634819D01*
X71428571Y-119634819D02*
X71666666Y-119634819D01*
X71666666Y-119634819D02*
X71761904Y-119587200D01*
X71761904Y-119587200D02*
X71809523Y-119539580D01*
X89605357Y-119539580D02*
X89652976Y-119587200D01*
X89652976Y-119587200D02*
X89795833Y-119634819D01*
X89795833Y-119634819D02*
X89891071Y-119634819D01*
X89891071Y-119634819D02*
X90033928Y-119587200D01*
X90033928Y-119587200D02*
X90129166Y-119491961D01*
X90129166Y-119491961D02*
X90176785Y-119396723D01*
X90176785Y-119396723D02*
X90224404Y-119206247D01*
X90224404Y-119206247D02*
X90224404Y-119063390D01*
X90224404Y-119063390D02*
X90176785Y-118872914D01*
X90176785Y-118872914D02*
X90129166Y-118777676D01*
X90129166Y-118777676D02*
X90033928Y-118682438D01*
X90033928Y-118682438D02*
X89891071Y-118634819D01*
X89891071Y-118634819D02*
X89795833Y-118634819D01*
X89795833Y-118634819D02*
X89652976Y-118682438D01*
X89652976Y-118682438D02*
X89605357Y-118730057D01*
X88700595Y-118634819D02*
X89176785Y-118634819D01*
X89176785Y-118634819D02*
X89224404Y-119111009D01*
X89224404Y-119111009D02*
X89176785Y-119063390D01*
X89176785Y-119063390D02*
X89081547Y-119015771D01*
X89081547Y-119015771D02*
X88843452Y-119015771D01*
X88843452Y-119015771D02*
X88748214Y-119063390D01*
X88748214Y-119063390D02*
X88700595Y-119111009D01*
X88700595Y-119111009D02*
X88652976Y-119206247D01*
X88652976Y-119206247D02*
X88652976Y-119444342D01*
X88652976Y-119444342D02*
X88700595Y-119539580D01*
X88700595Y-119539580D02*
X88748214Y-119587200D01*
X88748214Y-119587200D02*
X88843452Y-119634819D01*
X88843452Y-119634819D02*
X89081547Y-119634819D01*
X89081547Y-119634819D02*
X89176785Y-119587200D01*
X89176785Y-119587200D02*
X89224404Y-119539580D01*
X87795833Y-118968152D02*
X87795833Y-119634819D01*
X88033928Y-118587200D02*
X88272023Y-119301485D01*
X88272023Y-119301485D02*
X87652976Y-119301485D01*
X69180357Y-113539580D02*
X69227976Y-113587200D01*
X69227976Y-113587200D02*
X69370833Y-113634819D01*
X69370833Y-113634819D02*
X69466071Y-113634819D01*
X69466071Y-113634819D02*
X69608928Y-113587200D01*
X69608928Y-113587200D02*
X69704166Y-113491961D01*
X69704166Y-113491961D02*
X69751785Y-113396723D01*
X69751785Y-113396723D02*
X69799404Y-113206247D01*
X69799404Y-113206247D02*
X69799404Y-113063390D01*
X69799404Y-113063390D02*
X69751785Y-112872914D01*
X69751785Y-112872914D02*
X69704166Y-112777676D01*
X69704166Y-112777676D02*
X69608928Y-112682438D01*
X69608928Y-112682438D02*
X69466071Y-112634819D01*
X69466071Y-112634819D02*
X69370833Y-112634819D01*
X69370833Y-112634819D02*
X69227976Y-112682438D01*
X69227976Y-112682438D02*
X69180357Y-112730057D01*
X68275595Y-112634819D02*
X68751785Y-112634819D01*
X68751785Y-112634819D02*
X68799404Y-113111009D01*
X68799404Y-113111009D02*
X68751785Y-113063390D01*
X68751785Y-113063390D02*
X68656547Y-113015771D01*
X68656547Y-113015771D02*
X68418452Y-113015771D01*
X68418452Y-113015771D02*
X68323214Y-113063390D01*
X68323214Y-113063390D02*
X68275595Y-113111009D01*
X68275595Y-113111009D02*
X68227976Y-113206247D01*
X68227976Y-113206247D02*
X68227976Y-113444342D01*
X68227976Y-113444342D02*
X68275595Y-113539580D01*
X68275595Y-113539580D02*
X68323214Y-113587200D01*
X68323214Y-113587200D02*
X68418452Y-113634819D01*
X68418452Y-113634819D02*
X68656547Y-113634819D01*
X68656547Y-113634819D02*
X68751785Y-113587200D01*
X68751785Y-113587200D02*
X68799404Y-113539580D01*
X67894642Y-112634819D02*
X67275595Y-112634819D01*
X67275595Y-112634819D02*
X67608928Y-113015771D01*
X67608928Y-113015771D02*
X67466071Y-113015771D01*
X67466071Y-113015771D02*
X67370833Y-113063390D01*
X67370833Y-113063390D02*
X67323214Y-113111009D01*
X67323214Y-113111009D02*
X67275595Y-113206247D01*
X67275595Y-113206247D02*
X67275595Y-113444342D01*
X67275595Y-113444342D02*
X67323214Y-113539580D01*
X67323214Y-113539580D02*
X67370833Y-113587200D01*
X67370833Y-113587200D02*
X67466071Y-113634819D01*
X67466071Y-113634819D02*
X67751785Y-113634819D01*
X67751785Y-113634819D02*
X67847023Y-113587200D01*
X67847023Y-113587200D02*
X67894642Y-113539580D01*
X93642857Y-116349580D02*
X93690476Y-116397200D01*
X93690476Y-116397200D02*
X93833333Y-116444819D01*
X93833333Y-116444819D02*
X93928571Y-116444819D01*
X93928571Y-116444819D02*
X94071428Y-116397200D01*
X94071428Y-116397200D02*
X94166666Y-116301961D01*
X94166666Y-116301961D02*
X94214285Y-116206723D01*
X94214285Y-116206723D02*
X94261904Y-116016247D01*
X94261904Y-116016247D02*
X94261904Y-115873390D01*
X94261904Y-115873390D02*
X94214285Y-115682914D01*
X94214285Y-115682914D02*
X94166666Y-115587676D01*
X94166666Y-115587676D02*
X94071428Y-115492438D01*
X94071428Y-115492438D02*
X93928571Y-115444819D01*
X93928571Y-115444819D02*
X93833333Y-115444819D01*
X93833333Y-115444819D02*
X93690476Y-115492438D01*
X93690476Y-115492438D02*
X93642857Y-115540057D01*
X92738095Y-115444819D02*
X93214285Y-115444819D01*
X93214285Y-115444819D02*
X93261904Y-115921009D01*
X93261904Y-115921009D02*
X93214285Y-115873390D01*
X93214285Y-115873390D02*
X93119047Y-115825771D01*
X93119047Y-115825771D02*
X92880952Y-115825771D01*
X92880952Y-115825771D02*
X92785714Y-115873390D01*
X92785714Y-115873390D02*
X92738095Y-115921009D01*
X92738095Y-115921009D02*
X92690476Y-116016247D01*
X92690476Y-116016247D02*
X92690476Y-116254342D01*
X92690476Y-116254342D02*
X92738095Y-116349580D01*
X92738095Y-116349580D02*
X92785714Y-116397200D01*
X92785714Y-116397200D02*
X92880952Y-116444819D01*
X92880952Y-116444819D02*
X93119047Y-116444819D01*
X93119047Y-116444819D02*
X93214285Y-116397200D01*
X93214285Y-116397200D02*
X93261904Y-116349580D01*
X92309523Y-115540057D02*
X92261904Y-115492438D01*
X92261904Y-115492438D02*
X92166666Y-115444819D01*
X92166666Y-115444819D02*
X91928571Y-115444819D01*
X91928571Y-115444819D02*
X91833333Y-115492438D01*
X91833333Y-115492438D02*
X91785714Y-115540057D01*
X91785714Y-115540057D02*
X91738095Y-115635295D01*
X91738095Y-115635295D02*
X91738095Y-115730533D01*
X91738095Y-115730533D02*
X91785714Y-115873390D01*
X91785714Y-115873390D02*
X92357142Y-116444819D01*
X92357142Y-116444819D02*
X91738095Y-116444819D01*
X65642857Y-115359580D02*
X65690476Y-115407200D01*
X65690476Y-115407200D02*
X65833333Y-115454819D01*
X65833333Y-115454819D02*
X65928571Y-115454819D01*
X65928571Y-115454819D02*
X66071428Y-115407200D01*
X66071428Y-115407200D02*
X66166666Y-115311961D01*
X66166666Y-115311961D02*
X66214285Y-115216723D01*
X66214285Y-115216723D02*
X66261904Y-115026247D01*
X66261904Y-115026247D02*
X66261904Y-114883390D01*
X66261904Y-114883390D02*
X66214285Y-114692914D01*
X66214285Y-114692914D02*
X66166666Y-114597676D01*
X66166666Y-114597676D02*
X66071428Y-114502438D01*
X66071428Y-114502438D02*
X65928571Y-114454819D01*
X65928571Y-114454819D02*
X65833333Y-114454819D01*
X65833333Y-114454819D02*
X65690476Y-114502438D01*
X65690476Y-114502438D02*
X65642857Y-114550057D01*
X64738095Y-114454819D02*
X65214285Y-114454819D01*
X65214285Y-114454819D02*
X65261904Y-114931009D01*
X65261904Y-114931009D02*
X65214285Y-114883390D01*
X65214285Y-114883390D02*
X65119047Y-114835771D01*
X65119047Y-114835771D02*
X64880952Y-114835771D01*
X64880952Y-114835771D02*
X64785714Y-114883390D01*
X64785714Y-114883390D02*
X64738095Y-114931009D01*
X64738095Y-114931009D02*
X64690476Y-115026247D01*
X64690476Y-115026247D02*
X64690476Y-115264342D01*
X64690476Y-115264342D02*
X64738095Y-115359580D01*
X64738095Y-115359580D02*
X64785714Y-115407200D01*
X64785714Y-115407200D02*
X64880952Y-115454819D01*
X64880952Y-115454819D02*
X65119047Y-115454819D01*
X65119047Y-115454819D02*
X65214285Y-115407200D01*
X65214285Y-115407200D02*
X65261904Y-115359580D01*
X63738095Y-115454819D02*
X64309523Y-115454819D01*
X64023809Y-115454819D02*
X64023809Y-114454819D01*
X64023809Y-114454819D02*
X64119047Y-114597676D01*
X64119047Y-114597676D02*
X64214285Y-114692914D01*
X64214285Y-114692914D02*
X64309523Y-114740533D01*
X92605357Y-110359580D02*
X92652976Y-110407200D01*
X92652976Y-110407200D02*
X92795833Y-110454819D01*
X92795833Y-110454819D02*
X92891071Y-110454819D01*
X92891071Y-110454819D02*
X93033928Y-110407200D01*
X93033928Y-110407200D02*
X93129166Y-110311961D01*
X93129166Y-110311961D02*
X93176785Y-110216723D01*
X93176785Y-110216723D02*
X93224404Y-110026247D01*
X93224404Y-110026247D02*
X93224404Y-109883390D01*
X93224404Y-109883390D02*
X93176785Y-109692914D01*
X93176785Y-109692914D02*
X93129166Y-109597676D01*
X93129166Y-109597676D02*
X93033928Y-109502438D01*
X93033928Y-109502438D02*
X92891071Y-109454819D01*
X92891071Y-109454819D02*
X92795833Y-109454819D01*
X92795833Y-109454819D02*
X92652976Y-109502438D01*
X92652976Y-109502438D02*
X92605357Y-109550057D01*
X91700595Y-109454819D02*
X92176785Y-109454819D01*
X92176785Y-109454819D02*
X92224404Y-109931009D01*
X92224404Y-109931009D02*
X92176785Y-109883390D01*
X92176785Y-109883390D02*
X92081547Y-109835771D01*
X92081547Y-109835771D02*
X91843452Y-109835771D01*
X91843452Y-109835771D02*
X91748214Y-109883390D01*
X91748214Y-109883390D02*
X91700595Y-109931009D01*
X91700595Y-109931009D02*
X91652976Y-110026247D01*
X91652976Y-110026247D02*
X91652976Y-110264342D01*
X91652976Y-110264342D02*
X91700595Y-110359580D01*
X91700595Y-110359580D02*
X91748214Y-110407200D01*
X91748214Y-110407200D02*
X91843452Y-110454819D01*
X91843452Y-110454819D02*
X92081547Y-110454819D01*
X92081547Y-110454819D02*
X92176785Y-110407200D01*
X92176785Y-110407200D02*
X92224404Y-110359580D01*
X91033928Y-109454819D02*
X90938690Y-109454819D01*
X90938690Y-109454819D02*
X90843452Y-109502438D01*
X90843452Y-109502438D02*
X90795833Y-109550057D01*
X90795833Y-109550057D02*
X90748214Y-109645295D01*
X90748214Y-109645295D02*
X90700595Y-109835771D01*
X90700595Y-109835771D02*
X90700595Y-110073866D01*
X90700595Y-110073866D02*
X90748214Y-110264342D01*
X90748214Y-110264342D02*
X90795833Y-110359580D01*
X90795833Y-110359580D02*
X90843452Y-110407200D01*
X90843452Y-110407200D02*
X90938690Y-110454819D01*
X90938690Y-110454819D02*
X91033928Y-110454819D01*
X91033928Y-110454819D02*
X91129166Y-110407200D01*
X91129166Y-110407200D02*
X91176785Y-110359580D01*
X91176785Y-110359580D02*
X91224404Y-110264342D01*
X91224404Y-110264342D02*
X91272023Y-110073866D01*
X91272023Y-110073866D02*
X91272023Y-109835771D01*
X91272023Y-109835771D02*
X91224404Y-109645295D01*
X91224404Y-109645295D02*
X91176785Y-109550057D01*
X91176785Y-109550057D02*
X91129166Y-109502438D01*
X91129166Y-109502438D02*
X91033928Y-109454819D01*
D12*
%TO.C,R23*%
X68727064Y-118235000D02*
X68272936Y-118235000D01*
X68727064Y-116765000D02*
X68272936Y-116765000D01*
%TO.C,R22*%
X93189564Y-118235000D02*
X92735436Y-118235000D01*
X93189564Y-116765000D02*
X92735436Y-116765000D01*
%TO.C,R3*%
X66772936Y-85265000D02*
X67227064Y-85265000D01*
X66772936Y-86735000D02*
X67227064Y-86735000D01*
D13*
%TO.C,L4*%
X75350000Y-128500000D02*
X75350000Y-121350000D01*
X82650000Y-121500000D02*
X82650000Y-128650000D01*
%TO.C,L3*%
X93150000Y-121500000D02*
X93150000Y-128650000D01*
X85850000Y-128500000D02*
X85850000Y-121350000D01*
%TO.C,L1*%
X103000000Y-120850000D02*
X110150000Y-120850000D01*
X110000000Y-128150000D02*
X102850000Y-128150000D01*
D12*
%TO.C,C55*%
X72761252Y-118235000D02*
X72238748Y-118235000D01*
X72761252Y-116765000D02*
X72238748Y-116765000D01*
%TO.C,C54*%
X89223752Y-118235000D02*
X88701248Y-118235000D01*
X89223752Y-116765000D02*
X88701248Y-116765000D01*
%TO.C,C53*%
X68798752Y-112235000D02*
X68276248Y-112235000D01*
X68798752Y-110765000D02*
X68276248Y-110765000D01*
%TO.C,C52*%
X93223752Y-115235000D02*
X92701248Y-115235000D01*
X93223752Y-113765000D02*
X92701248Y-113765000D01*
%TO.C,C51*%
X68761252Y-115735000D02*
X68238748Y-115735000D01*
X68761252Y-114265000D02*
X68238748Y-114265000D01*
%TO.C,C50*%
X93223752Y-112735000D02*
X92701248Y-112735000D01*
X93223752Y-111265000D02*
X92701248Y-111265000D01*
%TD*%
M02*
